<svg xmlns="http://www.w3.org/2000/svg" xmlns:xlink="http://www.w3.org/1999/xlink" width="56" height="56"><defs><path id="a" d="M39.2307692 22v7.3846154c0 .3461538-.2629206.6153846-.6009615.6153846h-1.8028846v2.4615385c0 2.0384615-1.6150842 3.6923077-3.6057693 3.6923077-1.990685 0-3.6057692-1.6538462-3.6057692-3.6923077V30H10.3846154v2.4615385c0 2.0384615-1.61508415 3.6923077-3.60576925 3.6923077-1.99068509 0-3.60576923-1.6538462-3.60576923-3.6923077V30H1.37019231c-.33804087 0-.60096154-.2692308-.60096154-.6153846V22c0-2.3846154 1.87800481-4.3076923 4.20673077-4.3076923h.52584134l1.97190505-8.05769232c.58218149-2.42307692 2.87334737-4.25 5.31475357-4.25h14.423077c2.4414062 0 4.7325721 1.82692308 5.3147536 4.25l1.971905 8.05769232h.5258414c2.3287259 0 4.2067307 1.9230769 4.2067307 4.3076923zM9.78365385 23.8461538c0-1.6923076-1.35216347-3.076923-3.0048077-3.076923-1.65264423 0-3.00480769 1.3846154-3.00480769 3.076923 0 1.6923077 1.35216346 3.0769231 3.00480769 3.0769231 1.65264423 0 3.0048077-1.3846154 3.0048077-3.0769231zm.67608175-6.1538461h19.0805288l-1.6714243-6.8653846c-.0563401-.2115385-.4319411-.5192308-.6573016-.5192308h-14.423077c-.2253605 0-.6009615.3076923-.6573016.5192308l-1.6714243 6.8653846zm25.7662259 6.1538461c0-1.6923076-1.3521634-3.076923-3.0048077-3.076923-1.6526442 0-3.0048076 1.3846154-3.0048076 3.076923 0 1.6923077 1.3521634 3.0769231 3.0048076 3.0769231 1.6526443 0 3.0048077-1.3846154 3.0048077-3.0769231z"/></defs><circle cx="28" cy="28" r="28" fill="#C7DDEE"/><circle cx="15" cy="31" r="4" fill="#FFD000"/><circle cx="41" cy="31" r="4" fill="#FFD000"/><g transform="translate(8 7)"><mask id="b" fill="#fff"><use xlink:href="#a"/></mask><use xlink:href="#a"/><g fill="#0E66A8" mask="url(#b)"><path d="M0 0h40v40H0z"/></g><g fill="#1A1446" mask="url(#b)"><path d="M0 0h40v40H0z"/></g></g></svg>